<mxfile host="app.diagrams.net" modified="2024-05-24T16:54:50.349Z" agent="Mozilla/5.0 (X11; Linux x86_64; rv:125.0) Gecko/20100101 Firefox/125.0" version="24.4.8" etag="3sZ2GS_8Ub8iRc6OsBas" type="github">
  <diagram name="Page-1" id="P_XWOpADD0DAvPMEMDRK">
    <mxGraphModel>
      <root>
        <mxCell id="0" />
        <mxCell id="1" parent="0" />
      </root>
    </mxGraphModel>
  </diagram>
</mxfile>
